<svg xmlns="http://www.w3.org/2000/svg" x="0px" y="0px" width="96" height="96" viewBox="0 0 172 172" style=" fill:#000000;">
    <g fill="none" fill-rule="nonzero" stroke="none" stroke-width="1" stroke-linecap="butt" stroke-linejoin="miter" stroke-miterlimit="10" stroke-dasharray="" stroke-dashoffset="0" font-family="none" font-weight="none" font-size="none" text-anchor="none" style="mix-blend-mode: normal">
        <path d="M0,172v-172h172v172z" fill="none"></path>
        <g fill="#128980">
            <path d="M136.16667,100.33333c-19.78,0 -35.83333,16.05333 -35.83333,35.83333c0,19.78 16.05333,35.83333 35.83333,35.83333c19.78,0 35.83333,-16.05333 35.83333,-35.83333c0,-19.78 -16.05333,-35.83333 -35.83333,-35.83333zM139.24833,158.67v2.86667c0,1.86333 -1.43333,3.29667 -3.225,3.29667c-1.86333,0 -3.29667,-1.43333 -3.29667,-3.29667v-2.29333c-2.72333,-0.28667 -5.01667,-1.075 -6.80833,-2.15c-2.22167,-1.21833 -2.795,-4.15667 -1.36167,-6.235l0.14333,-0.215c1.21833,-1.79167 3.58333,-2.50833 5.51833,-1.505c1.14667,0.57333 2.58,1.075 4.22833,1.075c3.655,0 4.3,-3.15333 4.3,-4.515c0,-7.38167 -14.76333,-4.87333 -14.76333,-18.99167c0,-6.45 3.58333,-11.46667 9.03,-13.25833v-2.65167c0,-1.86333 1.505,-3.29667 3.29667,-3.29667c1.79167,0 3.29667,1.43333 3.29667,3.29667v1.935c2.07833,0.215 3.79833,0.71667 5.16,1.29c2.50833,1.14667 3.36833,4.3 1.72,6.59333c-1.21833,1.72 -3.51167,2.58 -5.51833,1.72c-0.78833,-0.43 -1.79167,-0.645 -2.93833,-0.645c-1.075,0 -4.37167,0.43 -4.37167,4.58667c0,7.02333 14.90667,5.16 14.90667,18.705c0,6.30667 -3.225,11.825 -9.31667,13.68833z"></path>
            <path d="M130.8275,86.29383c1.75583,-0.18633 3.53317,-0.29383 5.33917,-0.29383c4.98083,0 9.78967,0.7525 14.33333,2.107v-9.27367c0,-50.16667 -43,-50.16667 -43,-50.16667c0,-7.91917 -6.41417,-14.33333 -14.33333,-14.33333h-7.16667c-35.6255,0 -64.5,28.8745 -64.5,64.5v21.5c0,3.956 3.21067,7.16667 7.16667,7.16667c3.956,0 7.16667,-2.09983 7.16667,-7.16667c0,-11.75333 9.62483,-21.5 21.5,-21.5h57.33333c6.47867,0 12.21917,2.924 16.16083,7.4605z"></path>
            <path d="M147.86983,107.801c-0.37983,-0.44433 -0.84567,-0.7955 -1.29,-1.1825c2.3005,-1.18967 3.92017,-3.51883 3.92017,-6.28517v-12.22633c-2.87383,-0.85283 -5.88383,-1.36883 -8.944,-1.70567c-6.235,-24.9185 -28.70967,-43.40133 -55.556,-43.40133c-31.66233,0 -57.33333,25.671 -57.33333,57.33333c0,1.41183 0.1075,2.795 0.20783,4.17817c-4.27133,1.419 -7.3745,5.40367 -7.3745,10.15517c0,5.934 4.816,10.75 10.75,10.75c0.73817,0 1.45483,-0.07167 2.15,-0.215c9.2665,19.19233 28.86017,32.465 51.6,32.465c7.47483,0 14.5555,-1.55517 21.09867,-4.16383c5.60433,9.51733 15.85267,15.98167 27.69917,15.98167c17.80917,0 32.25,-14.44083 32.25,-32.25c0,-13.14367 -7.89767,-24.40967 -19.178,-29.4335z" opacity="0.35"></path>
        </g>
    </g>
</svg>