<svg xmlns="http://www.w3.org/2000/svg" x="0px" y="0px" width="96" height="96" viewBox="0 0 226 226" style=" fill:#000000;"><g fill="none" fill-rule="nonzero" stroke="none" stroke-width="1" stroke-linecap="butt" stroke-linejoin="miter" stroke-miterlimit="10" stroke-dasharray="" stroke-dashoffset="0" font-family="none" font-weight="none" font-size="none" text-anchor="none" style="mix-blend-mode: normal"><path d="M0,226v-226h226v226z" fill="none"></path><g fill="#128980"><path d="M169.5,197.75h-113c-15.60342,0 -28.25,-12.64658 -28.25,-28.25v-103.58333h169.5v103.58333c0,15.60342 -12.64658,28.25 -28.25,28.25z" opacity="0.35"></path><path d="M160.08333,197.75h-47.08333v-65.91667c0,-5.198 4.21867,-9.41667 9.41667,-9.41667h28.25c5.198,0 9.41667,4.21867 9.41667,9.41667z"></path><path d="M84.75,160.08333h-18.83333c-5.198,0 -9.41667,-4.21867 -9.41667,-9.41667v-18.83333c0,-5.198 4.21867,-9.41667 9.41667,-9.41667h18.83333c5.198,0 9.41667,4.21867 9.41667,9.41667v18.83333c0,5.198 -4.21867,9.41667 -9.41667,9.41667z"></path><path d="M206.17792,80.54075l-8.42792,-16.84642v-7.19433c0,-15.60342 -12.64658,-28.25 -28.25,-28.25h-113c-15.60342,0 -28.25,12.64658 -28.25,28.25v7.19433l-8.42792,16.84642c-1.90217,3.80433 -1.017,8.39967 2.15642,11.23408c1.356,1.20533 13.68242,11.8085 29.81317,11.8085c10.43367,0 19.28533,-4.44467 24.59633,-7.90058c7.29792,3.14517 20.905,7.90058 36.612,7.90058c15.707,0 29.31408,-4.75542 36.612,-7.90058c5.311,3.45592 14.16267,7.90058 24.59633,7.90058c16.13075,0 28.45717,-10.60317 29.81317,-11.8085c3.17342,-2.83442 4.05858,-7.42975 2.15642,-11.23408z"></path></g></g></svg>